.
 
http://www.scenetime.com    -   SceneTime [ We been having it ] !!!


How come you press harder on a remote control when you know the battery is dead? so you better seed to get speed ;)

        Seed back for speed


...................................NFO:.................................................Elektra.2005.BRRiP.XViD.AC3-TA

[IMG]http://trackeraccess.org/covers/pics/5f14d2ac9a82688808d94cb38d154f88.png[/IMG]

Plot:
Elektra the warrior survives a near-death experience, becomes an assassin-for-hire, and tries to protect her two latest targets, a single father and his young daughter, from a group of supernatural assassins.
 
http://www.imdb.com/title/tt0357277/

General
Complete name                    : Elektra.2005.BRRiP.XViD.AC3-TA.avi
Format                           : AVI
Format/Info                      : Audio Video Interleave
File size                        : 1.37 GiB
Duration                         : 1h 36mn
Overall bit rate                 : 2 028 Kbps
Source                           : Elektra.2005.720p.BluRay.x264-MEDiC

Video
ID                               : 0
Format                           : MPEG-4 Visual
Format profile                   : Advanced Simple@L5
Format settings, BVOP            : 2
Format settings, QPel            : No
Format settings, GMC             : No warppoints
Format settings, Matrix          : Default (H.263)
Codec ID                         : XVID
Codec ID/Hint                    : XviD
Duration                         : 1h 36mn
Bit rate                         : 1 795 Kbps
Width                            : 720 pixels
Height                           : 304 pixels
Display aspect ratio             : 2.35:1
Frame rate                       : 23.976 fps
Color space                      : YUV
Chroma subsampling               : 4:2:0
Bit depth                        : 8 bits
Scan type                        : Progressive
Compression mode                 : Lossy
Bits/(Pixel*Frame)               : 0.342
Stream size                      : 1.21 GiB (88%)
Writing library                  : XviD 63

Audio
ID                               : 1
Format                           : AC-3
Format/Info                      : Audio Coding 3
Mode extension                   : CM (complete main)
Codec ID                         : 2000
Duration                         : 1h 36mn
Bit rate mode                    : Constant
Bit rate                         : 224 Kbps
Channel(s)                       : 6 channels
Channel positions                : Front: L C R, Side: L R, LFE
Sampling rate                    : 48.0 KHz
Bit depth                        : 16 bits
Compression mode                 : Lossy
Stream size                      : 155 MiB (11%)
Alignment                        : Aligned on interleaves
Interleave, duration             : 42 ms (1.00 video frame)

Greets:
All groups (past and present) P2P and Scene

Screens:
        [img]http://www.shotpix.com/images/59927312352710561987.png[/img]
        [img]http://www.shotpix.com/images/95575919332162397598.png[/img]
        [img]http://www.shotpix.com/images/60325370797707590021.png[/img]
        [img]http://www.shotpix.com/images/79716986493107934244.png[/img]
        [img]http://www.shotpix.com/images/63327725177880666964.png[/img]

Enjoy,
TA-rg
[img]http://imageshack.us/m/221/9655/targ.png[/img]